<?xml version="1.0" encoding="UTF-8" standalone="no"?>
<svg width="12px" height="16px" viewBox="0 0 12 16" version="1.1" xmlns="http://www.w3.org/2000/svg" xmlns:xlink="http://www.w3.org/1999/xlink">
    <!-- Generator: Sketch 43.1 (39012) - http://www.bohemiancoding.com/sketch -->
    <title>Icon-Arrow-Down</title>
    <desc>Created with Sketch.</desc>
    <defs></defs>
    <g id="Symbols" stroke="none" stroke-width="1" fill="none" fill-rule="evenodd">
        <g id="Icon/arrow/down/W" transform="translate(-2.000000, 0.000000)">
            <g id="Icon-Arrow-Down">
                <rect id="16X16" x="0" y="0" width="16" height="16"></rect>
                <g id="Shape-Arrow-Down" transform="translate(2.000000, 0.000000)" fill="#FFFFFF">
                    <path d="M11.85325,10.146 C11.66425,9.957 11.36325,9.955 11.16625,10.132 L11.16325,10.129 L6.49925,14.369 L6.49925,0.5 C6.49925,0.223 6.27625,0 5.99925,0 C5.72325,0 5.49925,0.223 5.49925,0.5 L5.49925,14.369 L0.83625,10.129 L0.83325,10.133 C0.63725,9.955 0.33525,9.957 0.14625,10.146 C-0.04875,10.341 -0.04875,10.658 0.14625,10.853 C0.15225,10.859 0.16025,10.861 0.16625,10.866 L0.16325,10.87 L5.66325,15.87 L5.66625,15.866 C5.85625,16.039 6.14325,16.039 6.33325,15.866 L6.33625,15.87 L11.83525,10.87 L11.83325,10.867 C11.83925,10.861 11.84725,10.859 11.85325,10.853 C12.04825,10.658 12.04825,10.341 11.85325,10.146" id="Fill-1"></path>
                </g>
            </g>
        </g>
    </g>
</svg>