<?xml version="1.0" encoding="UTF-8" standalone="no"?>
<svg width="36px" height="23px" viewBox="0 0 36 23" version="1.1" xmlns="http://www.w3.org/2000/svg" xmlns:xlink="http://www.w3.org/1999/xlink">
    <!-- Generator: Sketch 43.1 (39012) - http://www.bohemiancoding.com/sketch -->
    <title>Page 1 Copy 2</title>
    <desc>Created with Sketch.</desc>
    <defs>
        <polygon id="path-1" points="20.389152 0.0121373619 20.389152 17.8673856 0.0376512 17.8673856 0.0376512 0.0121373619 20.389152 0.0121373619"></polygon>
    </defs>
    <g id="Symbols" stroke="none" stroke-width="1" fill="none" fill-rule="evenodd">
        <g id="Icon/cxlogo/W">
            <g id="Page-1">
                <g id="Group-3" transform="translate(3.072000, 3.234432)" fill="#FFFFFF">
                    <path d="M26.457312,0.0927456 C26.457312,0.0927456 13.111392,11.4914976 11.074848,12.5642976 C9.98208,13.1397216 8.81808,13.6598496 7.490112,13.6598496 C3.987168,13.6598496 1.142496,10.8495456 1.082592,7.3608096 C0.416256,8.5384416 0.032352,9.9072096 0.032352,11.3679456 C0.032352,14.0538336 1.32816,16.5393696 3.498432,18.0166176 L3.496704,18.0194016 C4.922496,18.6541536 6.516288,19.0080096 8.217216,19.0080096 C10.746048,19.0080096 13.306464,17.9090016 15.20352,16.5816096 C15.20352,16.5185376 31.295424,3.1305696 31.295424,3.1305696 L26.457312,0.0927456 Z" id="Fill-1"></path>
                </g>
                <path d="M2.4567552,14.1343968 C2.4567552,9.5379168 6.1828032,5.8119648 10.7790912,5.8119648 C12.6177792,5.8119648 14.0788032,6.4640928 14.1492672,6.5054688 C14.4027072,6.6319968 14.6557632,6.5054688 14.8454592,6.3158688 L17.4560832,3.2394528 C17.8396032,2.7394848 17.3925312,2.2910688 17.3925312,2.2910688 C16.4861952,1.6827168 14.2996992,2.88e-05 11.2456512,2.88e-05 C4.8589632,2.88e-05 1.92e-05,4.6492128 1.92e-05,10.9722528 C1.92e-05,15.4678368 2.4787392,19.2668448 6.2060352,21.0878688 C3.9473472,19.5995808 2.4567552,17.0413728 2.4567552,14.1343968" id="Fill-4" fill="#FFFFFF"></path>
                <g id="Group-8" transform="translate(15.552000, 1.218432)">
                    <mask id="mask-2" fill="white">
                        <use xlink:href="#path-1"></use>
                    </mask>
                    <g id="Clip-7"></g>
                    <path d="M16.3445952,0.1706496 L0.0376512,13.6392576 L3.5298432,17.8673856 L20.1377472,4.1495616 C20.4525312,3.8895936 20.4750912,3.4149696 20.1864192,3.1262976 L17.2750272,0.2149056 C17.0226432,-0.0374784 16.6197312,-0.0565824 16.3445952,0.1706496" id="Fill-6" fill="#FFFFFF" mask="url(#mask-2)"></path>
                </g>
                <path d="M18.6979104,3.9897984 L16.0670304,7.1329344 C15.8215584,7.4262144 15.8602464,7.8628224 16.1535264,8.1081984 L31.8651744,21.2598144 C32.1402144,21.4900224 32.5455264,21.4719744 32.7991584,21.2184384 L35.7087264,18.3088704 C35.9961504,18.0214464 35.9753184,17.5493184 35.6636064,17.2883904 L19.6731744,3.9033984 C19.3799904,3.6579264 18.9433824,3.6966144 18.6979104,3.9897984" id="Fill-9" fill="#FFFFFF"></path>
            </g>
        </g>
    </g>
</svg>